<svg width="420" height="360" viewBox="0 0 420 360" fill="none" xmlns="http://www.w3.org/2000/svg">
  <defs>
    <linearGradient id="body" x1="68" y1="92" x2="342" y2="294" gradientUnits="userSpaceOnUse">
      <stop stop-color="#2b303a"/>
      <stop offset="0.48" stop-color="#0f172a"/>
      <stop offset="1" stop-color="#050816"/>
    </linearGradient>
    <linearGradient id="gold" x1="102" y1="112" x2="316" y2="268" gradientUnits="userSpaceOnUse">
      <stop stop-color="#ffd166"/>
      <stop offset="0.45" stop-color="#f5b731"/>
      <stop offset="1" stop-color="#b77a07"/>
    </linearGradient>
    <linearGradient id="glass" x1="93" y1="92" x2="313" y2="260" gradientUnits="userSpaceOnUse">
      <stop stop-color="#ffffff" stop-opacity="0.28"/>
      <stop offset="1" stop-color="#ffffff" stop-opacity="0"/>
    </linearGradient>
    <filter id="shadow" x="23" y="27" width="374" height="304" filterUnits="userSpaceOnUse" color-interpolation-filters="sRGB">
      <feFlood flood-opacity="0" result="BackgroundImageFix"/>
      <feColorMatrix in="SourceAlpha" type="matrix" values="0 0 0 0 0 0 0 0 0 0 0 0 0 0 0 0 0 0 127 0" result="hardAlpha"/>
      <feOffset dy="18"/>
      <feGaussianBlur stdDeviation="22"/>
      <feComposite in2="hardAlpha" operator="out"/>
      <feColorMatrix type="matrix" values="0 0 0 0 0.02 0 0 0 0 0.04 0 0 0 0 0.08 0 0 0 0.28 0"/>
      <feBlend mode="normal" in2="BackgroundImageFix" result="effect1_dropShadow_1_2"/>
      <feBlend mode="normal" in="SourceGraphic" in2="effect1_dropShadow_1_2" result="shape"/>
    </filter>
  </defs>

  <g filter="url(#shadow)">
    <path d="M112 84C112 75.1634 119.163 68 128 68H292C300.837 68 308 75.1634 308 84V105H112V84Z" fill="#131722"/>
    <rect x="76" y="98" width="268" height="190" rx="34" fill="url(#body)"/>
    <rect x="90" y="112" width="240" height="162" rx="24" stroke="url(#gold)" stroke-width="8"/>
    <path d="M104 133C104 127.477 108.477 123 114 123H306C311.523 123 316 127.477 316 133V182H104V133Z" fill="url(#glass)"/>

    <circle cx="156" cy="205" r="54" fill="#090c14" stroke="#f5b731" stroke-width="7"/>
    <circle cx="156" cy="205" r="35" fill="#151b27" stroke="#ffffff" stroke-opacity="0.22" stroke-width="3"/>
    <path d="M143 223V187L175 205L143 223Z" fill="#f5b731"/>

    <rect x="220" y="142" width="74" height="10" rx="5" fill="#f5b731"/>
    <rect x="220" y="168" width="90" height="8" rx="4" fill="#ffffff" fill-opacity="0.72"/>
    <rect x="220" y="190" width="86" height="8" rx="4" fill="#ffffff" fill-opacity="0.52"/>
    <rect x="220" y="212" width="70" height="8" rx="4" fill="#ffffff" fill-opacity="0.36"/>

    <circle cx="282" cy="239" r="20" fill="#f5b731"/>
    <circle cx="282" cy="239" r="10" fill="#0f172a"/>
    <circle cx="227" cy="239" r="13" fill="#ffffff" fill-opacity="0.15"/>

    <path d="M132 68L105 24" stroke="#101521" stroke-width="10" stroke-linecap="round"/>
    <path d="M288 68L330 28" stroke="#101521" stroke-width="10" stroke-linecap="round"/>
    <path d="M112 303H146" stroke="#101521" stroke-width="13" stroke-linecap="round"/>
    <path d="M274 303H308" stroke="#101521" stroke-width="13" stroke-linecap="round"/>
  </g>
</svg>
